<svg xmlns="http://www.w3.org/2000/svg" viewBox="0 0 1874 440.84"><defs><style>.cls-1{font-size:78.31px;font-family:HelveticaNeue-Light, Helvetica Neue;font-weight:300;}.cls-10,.cls-2{fill:none;stroke:#000;stroke-miterlimit:10;}.cls-3{fill:#ff6663;}.cls-4{fill:#feb144;}.cls-5{fill:#963;}.cls-6{fill:#fdfd97;}.cls-7{fill:#cc99c9;}.cls-8{fill:#9ee09e;}.cls-9{fill:#9ec1cf;}.cls-10{stroke-width:5px;}</style></defs><g id="Layer_1" data-name="Layer 1"><path d="M222,399.11a71.67,71.67,0,0,0-20.47-25.48,79,79,0,0,0-30.28-14,162.13,162.13,0,0,0-37.58-4.17,174.22,174.22,0,0,0-32.16,3.13,93.64,93.64,0,0,0-30.28,11.07,67.47,67.47,0,0,0-22.35,21.09q-8.76,13.15-8.77,33.2t9,32.16a67.28,67.28,0,0,0,23.39,19.63,135.45,135.45,0,0,0,32.79,11.69q18.36,4.19,37.58,8.77,20.88,5.43,39.47,10.44A124.91,124.91,0,0,1,214.72,520a62.86,62.86,0,0,1,21.92,22.13q8.15,13.79,8.15,37.17,0,21.3-9.19,36.34a78,78,0,0,1-24.22,24.85,105.21,105.21,0,0,1-33.83,14.2,166.93,166.93,0,0,1-38,4.38,179,179,0,0,1-47-5.84,99.23,99.23,0,0,1-37.17-18.59,83.87,83.87,0,0,1-24.23-32.79q-8.57-20-8.14-48.44h8.35q0,26.73,7.94,45.31A77.09,77.09,0,0,0,61.65,629,89.79,89.79,0,0,0,95.9,645.94a171.26,171.26,0,0,0,43.64,5.22,155.58,155.58,0,0,0,34.88-4,98.15,98.15,0,0,0,31.11-12.74,70.54,70.54,0,0,0,22.34-22.55q8.56-13.78,8.57-33,0-22.56-9.82-35.71a70.64,70.64,0,0,0-25.06-20.89,139,139,0,0,0-33.83-11.69q-18.58-4-35.7-8.14-18-4.17-35.92-8.77A131.72,131.72,0,0,1,63.74,481a65.5,65.5,0,0,1-23.18-21.72Q31.79,445.69,31.79,424q0-22.12,9.19-37a70.22,70.22,0,0,1,23.8-23.6,104.59,104.59,0,0,1,32.79-12.53,178.3,178.3,0,0,1,36.13-3.76,162.71,162.71,0,0,1,40.72,4.81A90.53,90.53,0,0,1,207,367.37a75.93,75.93,0,0,1,22.35,28q8.34,17.34,9.6,42.39h-8.35Q229.75,414.78,222,399.11Z" transform="translate(-23 -320.05)"/><path d="M284.84,476.15h.84a81.61,81.61,0,0,1,8.37-17.54,73.35,73.35,0,0,1,15.49-17.75,84,84,0,0,1,23.24-13.58q13.61-5.41,31.19-5.43,24.69,0,42.9,9.19A87.24,87.24,0,0,1,437,455.68a106,106,0,0,1,17.79,35.92,155.8,155.8,0,0,1,5.86,43,163.62,163.62,0,0,1-5.86,45.1A99.06,99.06,0,0,1,437,615a81.72,81.72,0,0,1-30.15,23.18q-18.19,8.35-42.9,8.36-26.81,0-47.73-11.7t-30.56-38h-.84V718.38H269.39V426.87h15.45ZM364,632.76q20.92,0,36.22-7.93a71.9,71.9,0,0,0,25.12-21.3A92.92,92.92,0,0,0,440,572.41a147.37,147.37,0,0,0,.2-73.92A99.59,99.59,0,0,0,426,466.75,73.38,73.38,0,0,0,401,444.2q-15.29-8.55-37.05-8.56-21.36,0-36.43,8.35a70.67,70.67,0,0,0-24.5,22.13,93.09,93.09,0,0,0-13.61,31.54,160,160,0,0,0-4.19,37,177.64,177.64,0,0,0,3.77,37A89.46,89.46,0,0,0,301.8,602.9a65.39,65.39,0,0,0,24.29,21.72Q341.38,632.76,364,632.76Z" transform="translate(-23 -320.05)"/><path d="M508.06,570.33a80.71,80.71,0,0,0,12.74,27.35,72.76,72.76,0,0,0,22.13,20.05q13.37,7.93,32.16,7.93,28.81,0,45.1-15t22.56-40.09h26.31q-8.35,36.75-30.7,56.79t-63.27,20q-25.49,0-44.06-9a81,81,0,0,1-30.28-24.64,107.11,107.11,0,0,1-17.33-36.33,165.19,165.19,0,0,1-5.64-43.65A156.43,156.43,0,0,1,483.42,492a112.26,112.26,0,0,1,17.33-36.55A87.14,87.14,0,0,1,531,429.58q18.57-9.81,44.06-9.81,25.89,0,44.27,10.44a88.22,88.22,0,0,1,29.86,27.35,113.58,113.58,0,0,1,16.5,38.84,170.4,170.4,0,0,1,4.17,44.48H504.09A116.56,116.56,0,0,0,508.06,570.33Zm130.3-80.4a78.75,78.75,0,0,0-13.57-24.43,67.24,67.24,0,0,0-21.3-17.12,60.91,60.91,0,0,0-28.4-6.48q-16.29,0-28.82,6.48A67.24,67.24,0,0,0,525,465.5a85.42,85.42,0,0,0-14,24.64,120.72,120.72,0,0,0-6.89,28.61H643.58A95.15,95.15,0,0,0,638.36,489.93Z" transform="translate(-23 -320.05)"/><path d="M829.59,463.2q-13.37-11.28-35.92-11.28-19.21,0-32.16,7.1a57.45,57.45,0,0,0-20.67,18.8,79,79,0,0,0-11.07,26.94,146.66,146.66,0,0,0-3.34,31.53A119.86,119.86,0,0,0,730,565.52a78.16,78.16,0,0,0,11.07,25.27,56,56,0,0,0,19.63,17.75q12.11,6.69,28.82,6.68,26.31,0,41.13-13.78T848.8,562.6h36.34q-5.86,40.1-29.87,61.81t-65.36,21.72q-24.64,0-43.64-7.94a84.43,84.43,0,0,1-31.74-22.55,97.22,97.22,0,0,1-19.21-34.87,145.34,145.34,0,0,1-6.48-44.48A158.4,158.4,0,0,1,695.11,491a104.63,104.63,0,0,1,19-36.75,89.2,89.2,0,0,1,31.95-24.64q19.2-9,44.69-9A130.19,130.19,0,0,1,825.2,425a83.9,83.9,0,0,1,28.4,13.57,74.19,74.19,0,0,1,20.26,23.18q7.93,14,10,33.2H847.13Q842.95,474.48,829.59,463.2Z" transform="translate(-23 -320.05)"/><path d="M897.07,425.61H933V360.88H980.6v64.73h43v35.5h-43V576.38a117.06,117.06,0,0,0,.62,13,22.28,22.28,0,0,0,2.93,9.19,14,14,0,0,0,6.89,5.64q4.59,1.88,12.53,1.87c3.34,0,6.68-.06,10-.2a49.49,49.49,0,0,0,10-1.47v36.76q-7.93.82-15.45,1.67a141.65,141.65,0,0,1-15.45.83q-18.8,0-30.28-3.55t-18-10.44a36,36,0,0,1-8.77-17.33A129.77,129.77,0,0,1,933,588.49V461.11H897.07Z" transform="translate(-23 -320.05)"/><path d="M1111.73,425.61v40.1h.84a72.57,72.57,0,0,1,11.28-18.59,74.16,74.16,0,0,1,16.28-14.62,79.84,79.84,0,0,1,19.63-9.39,70.74,70.74,0,0,1,21.72-3.34,46.34,46.34,0,0,1,13,2.08V477q-4.18-.83-10-1.46a105.29,105.29,0,0,0-11.27-.62q-16.29,0-27.57,5.42a47.92,47.92,0,0,0-18.17,14.83,59.53,59.53,0,0,0-9.81,21.93,119.25,119.25,0,0,0-2.92,27.14v97.31h-59.31V425.61Z" transform="translate(-23 -320.05)"/><path d="M1317.6,629.42q-.84-6.25-1.67-13.36h-.84a44.51,44.51,0,0,1-19.91,22.55q-13.62,7.51-31.22,7.52-17.19,0-29.12-4.39a46,46,0,0,1-19.49-13.15,53.44,53.44,0,0,1-10.89-20.88,99.9,99.9,0,0,1-3.35-26.73q0-15.87,3.14-27.57a52.33,52.33,0,0,1,10.27-20.25q7.11-8.56,19.27-14.62T1264,508.31l29.76-7.1q12.15-2.93,17.18-8.57t5-16.07q0-20.88-19.28-20.89-10.9,0-15.92,6.06t-5.45,24h-65.37q0-24.63,8.8-39.46t21.79-23a78.53,78.53,0,0,1,28.07-10.86,159.22,159.22,0,0,1,28.08-2.72,196.07,196.07,0,0,1,36.25,3.13q16.55,3.13,28.49,11.28a53.34,53.34,0,0,1,18.44,22.14q6.5,14,6.5,36.12V592.67a276.64,276.64,0,0,0,1.25,28,57.12,57.12,0,0,0,5.87,20.88h-72.91A58,58,0,0,1,1317.6,629.42Zm-7.12-41.76q5.44-9.18,5.45-28V532.53h-.84q-3.36,4.61-10.27,5.64a60,60,0,0,0-15.29,4.8q-8.8,4.18-12.16,11.07T1274,572.21q0,11.26,5,17.95a15.94,15.94,0,0,0,13.41,6.69Q1305,596.85,1310.48,587.66Z" transform="translate(-23 -320.05)"/></g><g id="Layer_2" data-name="Layer 2"><text class="cls-1" transform="translate(296.54 416.96)">The Association for LGBTQ+ Mathematicians</text></g><g id="Layer_3" data-name="Layer 3"><line class="cls-2" x1="1731.29" y1="164.77" x2="1853.8" y2="120.21"/><polygon points="1858.77 118.4 1852.8 123.82 1853.42 120.35 1850.72 118.09 1858.77 118.4"/><line class="cls-2" x1="1731.29" y1="239.82" x2="1865.76" y2="190.91"/><polygon points="1870.74 189.1 1864.77 194.51 1865.39 191.04 1862.68 188.78 1870.74 189.1"/><line class="cls-2" x1="1818.3" y1="240.91" x2="1869.02" y2="222.45"/><polygon points="1874 220.64 1868.03 226.05 1868.65 222.58 1865.95 220.32 1874 220.64"/><line class="cls-2" x1="1818.3" y1="317.04" x2="1869.02" y2="298.58"/><polygon points="1874 296.77 1868.03 302.19 1868.65 298.72 1865.95 296.46 1874 296.77"/><circle cx="1403.92" cy="175.65" r="23.38"/><circle cx="1556.18" cy="175.65" r="23.38"/><circle cx="1556.18" cy="23.38" r="23.38"/><circle class="cls-3" cx="1403.92" cy="175.65" r="23.38"/><circle cx="1556.18" cy="175.65" r="23.38"/><circle class="cls-4" cx="1556.18" cy="23.38" r="23.38"/><circle cx="1708.45" cy="99.52" r="23.38"/><circle cx="1556.18" cy="175.65" r="23.38"/><circle class="cls-5" cx="1708.45" cy="251.78" r="23.38"/><circle cx="1795.46" cy="251.78" r="23.38"/><circle class="cls-6" cx="1556.18" cy="175.65" r="23.38"/><circle class="cls-7" cx="1795.46" cy="251.78" r="23.38"/><circle class="cls-8" cx="1708.45" cy="99.52" r="23.38"/><circle cx="1795.46" cy="327.92" r="23.38"/><circle class="cls-9" cx="1708.45" cy="175.65" r="23.38"/><line class="cls-10" x1="1422.95" y1="156.62" x2="1537.15" y2="42.42"/><line class="cls-10" x1="1556.18" y1="149.55" x2="1556.18" y2="49.49"/><line class="cls-10" x1="1708.68" y1="149.94" x2="1708.68" y2="125.47"/><line class="cls-10" x1="1708.68" y1="226.08" x2="1708.68" y2="201.6"/><line class="cls-10" x1="1795.69" y1="302.21" x2="1795.69" y2="277.74"/><line class="cls-10" x1="1781.55" y1="230.43" x2="1723.91" y2="120.58"/><line class="cls-10" x1="1778.29" y1="308.73" x2="1720.65" y2="198.88"/><line class="cls-10" x1="1580.11" y1="163.69" x2="1684.76" y2="114.05"/></g></svg>